<?xml version="1.0" encoding="UTF-8" standalone="no"?>
<!-- Uploaded to: SVG Repo, www.svgrepo.com, Generator: SVG Repo Mixer Tools -->

<svg
   aria-label="Google Scholar"
   role="img"
   viewBox="0 0 512 512"
   version="1.1"
   id="svg1"
   sodipodi:docname="sirculi.svg"
   inkscape:version="1.3.2 (091e20e, 2023-11-25, custom)"
   xml:space="preserve"
   xmlns:inkscape="http://www.inkscape.org/namespaces/inkscape"
   xmlns:sodipodi="http://sodipodi.sourceforge.net/DTD/sodipodi-0.dtd"
   xmlns="http://www.w3.org/2000/svg"
   xmlns:svg="http://www.w3.org/2000/svg"><defs
     id="defs1" /><sodipodi:namedview
     id="namedview1"
     pagecolor="#ffffff"
     bordercolor="#000000"
     borderopacity="0.25"
     inkscape:showpageshadow="2"
     inkscape:pageopacity="0.0"
     inkscape:pagecheckerboard="0"
     inkscape:deskcolor="#d1d1d1"
     inkscape:zoom="0.81621118"
     inkscape:cx="112.10334"
     inkscape:cy="227.26961"
     inkscape:window-width="1440"
     inkscape:window-height="829"
     inkscape:window-x="-8"
     inkscape:window-y="-8"
     inkscape:window-maximized="1"
     inkscape:current-layer="svg1" /><path
     fill="#ffffff"
     d="m 213,111 -107,94 h 69 c 5,45 41,64 78,67 -7,18 -4,27 7,39 -43,1 -103,26 -103,67 4,45 63,54 92,54 38,1 81,-19 90,-54 4,-35 -10,-54 -31,-71 -23,-18 -28,-28 -21,-40 15,-17 35,-27 39,-51 2,-17 -2,-28 -6,-43 l 45,-38 -1,16 c -3,2 -5,6 -5,9 v 103 c 2,13 22,11 23,0 V 160 c 0,-3 -2,-7 -5,-8 v -25 l 16,-16 z m 58,141 c -61,10 -87,-87 -38,-99 56,-11 83,86 38,99 z m -5,73 c 60,13 61,63 10,78 -44,9 -82,-4 -81,-30 0,-25 35,-48 71,-48 z"
     id="path1"
     style="display:none"
     sodipodi:insensitive="true" /><path
     style="display:none;fill:#000000;stroke-width:1.03399"
     d="m 243.46061,514.84883 c -7.37255,-0.36297 -20.75183,-1.86337 -29.65812,-3.32596 C 167.87281,503.98032 125.00085,484.48651 88.619402,454.60231 80.800161,448.17948 64.572588,432.43172 58.195245,425.07772 22.757264,384.21262 1.6764635,335.73261 -4.2151865,281.55101 -5.3215706,271.37633 -5.1511892,238.50905 -3.9389501,228.26385 4.7933397,154.46309 42.23722,90.718595 102.48373,47.089767 140.14087,19.819518 183.20401,3.603163 231.89457,-1.6426746 c 11.59331,-1.2490431 39.67359,-1.2394508 51.49638,0.017592 48.42784,5.1490189 90.95084,21.1887626 129.15405,48.7171326 62.28333,44.879949 101.0149,113.40648 107.10517,189.49778 0.73708,9.20896 0.72985,30.10053 -0.0135,39.1726 -3.79163,46.27135 -18.6442,88.02828 -44.83668,126.05498 -17.30252,25.1201 -38.04586,46.1594 -63.35648,64.2604 -48.31169,34.55034 -107.54154,51.74674 -167.98286,48.77102 z m -53.78976,-27.24238 c 1.76242,-0.87055 3.07474,-2.06506 4.21613,-3.83766 l 1.6572,-2.57369 v -22.59635 c 0,-12.42798 -0.12807,-22.71912 -0.28459,-22.86919 -0.15653,-0.15006 -3.00672,0.18892 -6.33378,0.7533 -9.11087,1.54553 -22.20408,1.89115 -30.0074,0.79208 -22.88523,-3.22323 -39.18755,-15.26026 -47.42806,-35.0191 -6.4494,-15.46417 -15.566284,-28.00271 -24.567575,-33.78806 -9.322802,-5.99197 -13.61044,-10.56082 -12.367692,-13.17881 1.138985,-2.3994 3.62469,-3.16405 10.285631,-3.16405 6.824321,0 10.939018,1.02913 17.310386,4.3295 7.76783,4.02374 15.72098,11.4485 20.94463,19.55313 10.72379,16.63824 21.35976,24.51223 36.61228,27.10465 9.28841,1.57873 24.00519,-0.46375 34.03967,-4.7242 2.2989,-0.97608 2.56027,-1.27583 2.89083,-3.31531 1.74962,-10.79497 6.79116,-21.65822 13.10903,-28.24673 l 2.12455,-2.21554 -1.83018,-0.27112 c -14.21015,-2.10512 -18.51307,-2.87002 -25.78839,-4.58423 -11.53669,-2.71828 -18.64325,-5.13692 -27.81355,-9.46604 -21.15504,-9.98689 -35.14347,-23.36543 -44.82369,-42.86935 -5.40027,-10.88059 -8.79513,-22.11907 -11.16777,-36.97017 -1.05998,-6.63472 -1.22889,-9.86872 -1.256286,-24.05329 -0.02926,-15.13033 0.06665,-16.85447 1.249686,-22.46735 3.37632,-16.01915 10.11516,-30.05426 20.34236,-42.36743 l 3.35623,-4.04079 -1.33887,-4.0468 c -3.22131,-9.73657 -4.3458,-24.11948 -2.77628,-35.51028 0.93962,-6.81928 3.25602,-16.23259 5.38367,-21.87796 l 1.29503,-3.43619 4.67884,-0.16935 c 6.37194,-0.23063 11.58609,0.64107 20.37559,3.40637 11.41237,3.5905 22.86238,9.12628 36.71899,17.75264 l 6.70238,4.17253 7.89286,-1.84771 c 19.85008,-4.64688 31.16805,-5.86403 54.43236,-5.85379 23.10068,0.0103 35.3203,1.32042 54.43238,5.83648 l 7.89284,1.86502 6.70239,-4.17253 c 9.12148,-5.67854 14.24251,-8.45601 22.97147,-12.45893 13.15118,-6.03084 24.44779,-8.95284 33.57448,-8.68445 l 5.22702,0.15372 1.2811,3.43619 c 2.26074,6.06381 4.38694,14.87215 5.35945,22.20302 1.58293,11.93225 0.33881,26.74446 -3.03753,36.1638 l -1.06948,2.98366 4.02062,4.93687 c 9.9803,12.25472 15.90035,24.55844 19.4863,40.49863 1.43468,6.37742 1.48659,7.17996 1.48773,22.99598 10e-4,18.80979 -0.86723,26.37799 -4.67164,40.70555 -10.31351,38.84121 -35.75504,62.26337 -79.02867,72.75595 -6.86237,1.66393 -24.47696,4.69033 -27.29915,4.69033 -1.80097,0 -2.06003,0.57406 -0.73527,1.62935 3.45624,2.75323 8.65084,11.12487 11.12583,17.93046 4.21722,11.59626 4.61733,17.28736 4.1811,59.47239 -0.38558,37.28591 -0.36358,37.68324 2.30465,41.62024 2.0861,3.07804 5.1473,4.35474 10.42284,4.34691 4.04853,-0.006 5.07658,-0.25624 12.66756,-3.08323 15.45847,-5.75696 34.58598,-15.23859 47.91642,-23.75245 22.97348,-14.67268 44.85263,-34.49053 61.97546,-56.13652 24.2135,-30.60974 41.4123,-68.88353 48.1592,-107.1723 2.82304,-16.02084 3.302,-22.15687 3.31217,-42.43381 0.009,-19.24805 -0.23923,-23.02888 -2.47081,-37.53368 C 490.76187,134.85376 433.41721,62.810076 353.22458,29.868414 298.16271,7.250009 236.13758,5.0143866 179.02127,23.589462 92.176791,51.832585 27.770884,125.3367 12.155387,214.02743 c -4.1255567,23.43176 -4.7249553,50.54914 -1.632752,73.8673 10.174555,76.72586 56.629392,144.26417 125.267245,182.11964 12.87906,7.10313 27.43735,13.5814 39.37605,17.52189 6.49081,2.14237 10.27274,2.16066 14.50492,0.0702 z"
     id="path3"
     sodipodi:insensitive="true" /><path
     style="display:none;fill:#000000"
     d="M 113.72557,288.04603 V 184.48014 h 32.35959 32.35959 v 103.56589 103.56589 h -32.35959 -32.35959 z m 116.38575,19.27845 c 0,-75.17073 -0.35059,-105.23515 -1.38364,-118.65303 l -0.32269,-4.19131 h 28.31803 c 22.29173,0 28.31807,0.14386 28.31823,0.67602 1.2e-4,0.37181 0.61196,6.34857 1.35965,13.28169 0.74769,6.93312 1.35943,12.95644 1.35943,13.38515 0,1.5132 1.50539,0.75164 3.0026,-1.51899 2.32078,-3.51962 10.37059,-11.54387 15.13777,-15.08969 11.10023,-8.25634 23.73812,-13.26441 38.149,-15.11747 6.6918,-0.86049 19.70391,-0.2953 26.64095,1.15717 27.61199,5.78135 45.87149,24.06995 53.53314,53.61843 3.68316,14.20475 3.51566,10.27467 3.7125,87.10966 l 0.17839,69.62981 h -32.379 -32.37899 v -60.99097 c 0,-38.29247 -0.20682,-62.63114 -0.55572,-65.3981 -2.30824,-18.30546 -10.48949,-29.47503 -23.91792,-32.65427 -3.8997,-0.92326 -12.52518,-0.93561 -16.31576,-0.0234 -5.75437,1.38487 -10.80304,4.29943 -15.55334,8.97882 -6.99561,6.89119 -10.51599,14.49888 -11.6064,25.08193 -0.36934,3.58463 -0.57705,27.09132 -0.57705,65.3033 v 59.70265 H 262.47091 230.11132 Z M 135.59713,157.42935 c -13.24959,-3.45194 -21.78838,-13.02511 -23.58474,-26.44175 -2.34987,-17.55067 7.06621,-31.545221 24.10826,-35.830669 6.44565,-1.620842 16.40982,-1.25277 22.45252,0.829384 13.677,4.712735 21.70566,16.264395 21.6621,31.167535 -0.0438,14.97838 -10.45293,27.38653 -25.61989,30.54001 -5.5025,1.14407 -14.06904,1.02492 -19.01825,-0.26451 z"
     id="path4" /><path
     style="display:none;fill:#000000"
     d="m 312.32965,435.05074 c -13.03295,-1.38475 -25.61771,-5.62452 -35.68591,-12.0225 -7.00442,-4.45106 -11.35642,-8.32288 -17.95801,-15.97658 -19.52471,-22.63641 -40.7199,-53.27177 -63.46047,-91.72528 l -1.93547,-3.2728 -7.16323,-0.157 c -13.57113,-0.29744 -25.65946,-0.65884 -26.5316,-0.79321 l -0.87422,-0.13469 0.12883,39.68779 c 0.11063,34.07896 0.18758,40.19827 0.54451,43.29995 1.03984,9.03607 2.62733,13.59865 5.9362,17.0611 1.82358,1.90823 3.06315,2.66948 5.81862,3.57338 4.88259,1.60169 9.6093,2.45454 20.18729,3.64243 3.08018,0.3459 6.39155,0.75242 7.35859,0.90337 l 1.75824,0.27445 v 6.34291 6.34292 l -2.14897,-0.14064 c -7.27842,-0.47633 -38.73786,-1.12184 -54.76615,-1.12374 -16.09508,-0.002 -43.971436,0.60063 -52.421815,1.13307 l -2.40945,0.15181 v -6.35503 -6.35503 l 1.252106,-0.25682 c 0.688659,-0.14124 3.062293,-0.54579 5.274743,-0.89899 9.962706,-1.59048 14.362896,-2.71172 18.268966,-4.6552 2.62438,-1.30578 3.31237,-1.85626 4.78268,-3.82682 2.64164,-3.54039 4.20551,-7.96196 4.92974,-13.93802 0.80052,-6.60558 0.9073,-17.34846 0.89149,-89.68813 -0.0161,-73.77771 -0.20933,-101.00381 -0.7469,-105.25101 -0.70574,-5.57587 -2.07462,-10.12504 -3.93771,-13.08611 -1.21556,-1.93192 -3.73197,-4.51598 -5.00044,-5.13487 -3.73263,-1.82115 -8.9393,-3.20044 -17.723545,-4.69511 -3.218784,-0.54769 -6.30426,-1.08554 -6.856612,-1.19523 l -1.004278,-0.19944 -0.06946,-6.21684 -0.06946,-6.21683 31.717915,-0.007 c 25.83066,-0.006 36.19016,-0.1134 55.81241,-0.5812 27.87923,-0.66464 33.55781,-0.57337 44.70498,0.71856 20.76617,2.40676 37.39812,8.79235 49.9799,19.18905 8.15373,6.73768 14.36232,15.67387 18.1089,26.06462 4.6533,12.90544 5.3243,26.61664 1.93931,39.62775 -2.80644,10.7873 -7.8458,20.54123 -15.21854,29.45626 -2.68175,3.24274 -10.20333,10.43908 -13.68139,13.08979 -8.25036,6.28779 -18.57735,11.54035 -28.47302,14.48207 -2.55254,0.7588 -3.1798,1.03378 -3.09366,1.35621 0.14897,0.55755 9.4933,15.38428 13.7182,21.76679 16.59791,25.07429 32.99617,46.13621 50.91299,65.39264 14.11656,15.17203 27.94429,23.3981 43.56167,25.91471 1.83528,0.29573 3.36783,0.56624 3.40566,0.60113 0.22103,0.2038 -0.49673,11.46677 -0.73991,11.61051 -0.3792,0.22413 -6.23809,1.38818 -9.48764,1.88502 -3.04507,0.46556 -16.18794,0.69135 -19.53608,0.33561 z M 198.36917,291.81278 c 16.93979,-1.51886 30.39589,-6.78684 39.6546,-15.52455 9.30713,-8.7834 15.18523,-21.11919 16.62742,-34.89439 0.44335,-4.23464 0.18588,-12.14607 -0.51952,-15.9636 -2.20768,-11.94771 -7.16606,-21.29088 -15.23691,-28.71117 -3.4752,-3.19508 -6.39387,-5.11865 -11.22146,-7.39559 -7.14329,-3.36914 -14.753,-5.28319 -25.00619,-6.28975 -5.5253,-0.54241 -19.62137,-0.5385 -31.77869,0.009 -5.01426,0.22574 -9.80311,0.41075 -10.64188,0.41114 l -1.52504,7e-4 0.0924,53.78806 c 0.0508,29.58343 0.15101,53.84074 0.22264,53.90514 0.0716,0.0644 4.29143,0.30111 9.37732,0.52601 5.08589,0.2249 10.00898,0.44877 10.9402,0.49748 3.04903,0.1595 15.95163,-0.0836 19.01512,-0.3583 z m 177.77835,-67.41096 c -9.34834,-0.74438 -18.61556,-3.44447 -25.52715,-7.43757 -4.95955,-2.86533 -10.84038,-7.94368 -13.76857,-11.88976 -5.42888,-7.31605 -8.94731,-16.79458 -10.42963,-28.09708 -0.72001,-5.48995 -0.94793,-10.39265 -1.06736,-22.95941 -0.20566,-21.63989 0.50729,-31.39231 2.97963,-40.7579 4.6371,-17.566129 15.41328,-29.115722 32.31446,-34.633704 6.67128,-2.178076 12.27818,-3.038719 19.79656,-3.038719 9.79115,0 18.08318,1.7563 26.51505,5.61604 5.97359,2.734448 10.60134,5.930806 15.06528,10.405501 3.3463,3.354349 5.67666,6.506648 7.76901,10.509192 2.52011,4.82082 2.74841,4.19129 -2.25379,6.21475 -7.1455,2.89045 -14.84502,5.86731 -15.17555,5.86731 -0.17236,0 -1.20608,-1.31719 -2.29715,-2.92709 -3.78071,-5.57855 -7.74816,-9.6693 -12.00506,-12.378145 -4.17815,-2.658739 -7.7857,-3.880799 -12.89161,-4.367052 -7.29301,-0.694537 -11.88181,0.02271 -17.63688,2.756709 -7.49454,3.560348 -13.51795,10.216258 -16.15362,17.849838 -1.32062,3.82486 -2.3051,12.11162 -2.73016,22.98077 -0.29792,7.61804 0.0283,28.34095 0.53525,34.00417 0.79033,8.82837 2.33132,14.45044 5.24757,19.14502 1.36935,2.20438 4.88089,5.71354 7.33945,7.33446 9.39278,6.19264 22.46725,7.2812 33.33072,2.77505 9.77369,-4.0541 15.06007,-11.97123 17.12178,-25.64236 0.15497,-1.0276 0.35212,-4.36169 0.43811,-7.40908 l 0.15635,-5.54072 -14.68961,-0.0644 -14.68961,-0.0644 -0.0683,-9.25069 -0.0683,-9.25069 8.5339,-0.18891 c 9.30474,-0.20597 43.25317,-0.004 43.5285,0.25871 0.31393,0.29977 0.35516,22.76332 0.0501,27.27515 -0.7838,11.591 -3.28862,21.26347 -7.35432,28.39909 -3.69998,6.49376 -9.90649,12.68155 -16.75014,16.69962 -5.93514,3.48466 -14.10746,6.20662 -22.01065,7.33111 -2.7173,0.38662 -10.66196,0.67358 -13.1543,0.47512 z"
     id="path5" /><path
     style="display:none;fill:#000000"
     d="m 119.38248,402.53417 c 1.26057,-1.62954 25.53274,-29.67856 53.93815,-62.33116 28.40541,-32.65259 51.63439,-59.81559 51.61995,-60.36222 -0.0234,-0.88627 -17.78437,-26.74284 -54.12095,-78.78979 -17.55288,-25.14198 -25.96597,-37.23968 -40.63398,-58.43011 L 117.1425,123.77783 h 41.05081 41.05082 l 11.21953,16.06669 c 6.17073,8.83667 22.40466,32.1423 36.07539,51.79027 l 24.85587,35.72358 8.89708,-10.1255 c 4.8934,-5.56902 25.17484,-28.87464 45.06987,-51.79027 l 36.17279,-41.66477 h 11.79697 c 11.04473,0 11.68756,0.1375 10.08125,2.15633 -0.94364,1.18598 -23.88952,27.68843 -50.99085,58.89433 -27.10133,31.2059 -49.27514,57.34904 -49.27514,58.09586 0,0.74683 20.52534,30.81989 45.61186,66.82902 25.08652,36.00913 49.28993,70.75338 53.78537,77.20944 4.49543,6.45606 9.16199,13.26737 10.37013,15.13623 l 2.19662,3.39793 -41.08485,-0.0497 -41.08486,-0.0497 -34.378,-49.56141 C 259.65525,328.57743 242.42802,303.81838 240.28042,300.8161 l -3.90473,-5.4587 -47.85843,55.06979 -47.85842,55.06978 h -11.78416 -11.78416 z m 239.18767,-16.56355 c 0,-0.54571 -1.60773,-3.18682 -3.57275,-5.86915 -3.01324,-4.1132 -99.44556,-142.51063 -133.84041,-192.08465 -5.89864,-8.50183 -15.47957,-22.26343 -21.29097,-30.58135 l -10.56618,-15.12349 h -17.87381 c -9.83059,0 -17.87381,0.27249 -17.87381,0.60552 0,0.33304 8.25141,12.42658 18.33646,26.87453 10.08506,14.44795 23.15146,33.21931 29.03646,41.71413 5.88499,8.49482 21.96384,31.59432 35.73076,51.33223 13.76693,19.7379 38.81324,55.72663 55.65846,79.97496 l 30.62768,44.08785 17.81406,0.0308 c 9.79773,0.0169 17.81405,-0.41568 17.81405,-0.96139 z"
     id="path7" /><ellipse
     style="fill:#6a6a6a;stroke-width:0.981776"
     id="path2"
     ry="252.6702"
     rx="253.71594"
     cy="257.00183"
     cx="255.95609" /><path
     style="fill:#000000"
     d="m 381.29654,446.01918 c -2.05558,-1.17614 -2.10778,-1.76731 -0.29828,-3.37821 1.79562,-1.59855 2.09596,-1.54144 1.65641,0.31498 -0.38802,1.63877 1.19357,2.39733 5.7035,2.73549 4.86222,0.36458 7.16787,-0.37144 10.43987,-3.33265 2.30969,-2.09031 4.19945,-3.2698 4.19945,-2.62108 0,0.64872 -1.73971,2.65862 -3.86601,4.46644 -4.08159,3.47024 -13.30209,4.4086 -17.83494,1.81503 z m -8.98295,-8.08513 c -2.61531,-2.64235 -9.69786,-9.39612 -15.739,-15.00838 -6.04115,-5.61225 -10.45336,-10.2041 -9.80493,-10.2041 1.99521,0 31.90544,28.56294 30.88105,29.49003 -0.32012,0.2897 -2.72182,-1.63519 -5.33712,-4.27755 z m 26.90977,-10.29082 c -1.7406,-2.74475 -3.64378,-4.10617 -4.82027,-3.44813 -1.23953,0.69331 -1.49294,0.4268 -0.69926,-0.73543 0.72717,-1.06482 -0.38105,-3.2548 -2.66508,-5.26653 -2.15042,-1.89406 -5.03736,-4.75779 -6.41542,-6.36384 -8.59887,-10.02154 -25.5217,-27.83192 -26.45258,-27.83995 -0.60976,-0.005 -2.46226,-2.21614 -4.11667,-4.91308 -3.49522,-5.69773 1.86645,-0.43503 28.11742,27.59842 17.01495,18.1703 21.73295,23.8706 20.60329,24.89295 -0.37137,0.3361 -1.96952,-1.42988 -3.55143,-3.92441 z m -248.45292,-6.01419 c -8.13819,-2.88994 -12.11937,-11.27289 -8.92808,-18.79935 0.6018,-1.41931 19.20564,-22.09659 41.34185,-45.9495 22.13622,-23.85291 42.41658,-45.72948 45.06747,-48.6146 l 4.8198,-5.24568 9.33149,9.12133 c 5.13231,5.01674 11.08346,10.89666 13.22477,13.0665 l 3.8933,3.94516 -15.41179,14.95133 c -8.47648,8.22322 -26.06518,25.15542 -39.08601,37.6271 -13.02082,12.47168 -26.98125,25.97629 -31.02316,30.01023 -6.74989,6.73658 -14.42347,11.70256 -17.71796,11.46622 -0.73465,-0.0527 -3.21491,-0.76313 -5.51168,-1.57874 z m 188.77694,-15.68756 c -3.10322,-2.8976 -5.31032,-5.56875 -4.90466,-5.93588 0.40566,-0.36712 3.21549,2.00364 6.24406,5.26837 6.81947,7.35123 6.16691,7.67645 -1.3394,0.66751 z m -9.74028,-8.66464 c -1.08714,-0.98388 -1.97661,-2.38168 -1.97661,-3.10622 0,-0.72455 1.21699,-0.21596 2.70442,1.13019 1.48743,1.34615 2.37691,2.74395 1.97661,3.10622 -0.40029,0.36227 -1.61728,-0.14631 -2.70442,-1.13019 z m -13.42696,-13.9433 c -4.7268,-4.52318 -8.59419,-8.7182 -8.59419,-9.32226 0,-0.60407 0.23224,-0.81486 0.51609,-0.46843 0.28385,0.34644 4.52707,4.54146 9.42938,9.32227 4.90231,4.78081 8.53745,8.69238 8.0781,8.69238 -0.45935,0 -4.70257,-3.70078 -9.42938,-8.22396 z m 30.80016,-12.39806 c -0.87973,-2.07479 -0.6353,-2.16832 1.49167,-0.57076 2.89851,2.17706 3.20018,3.05216 1.05214,3.05216 -0.82042,0 -1.96513,-1.11663 -2.54381,-2.4814 z m -56.90823,-13.01372 c -7.12939,-6.85942 -14.93746,-14.51003 -17.35126,-17.00134 l -4.38873,-4.52967 4.29986,3.4097 c 2.36493,1.87534 4.87049,2.89328 5.56793,2.26209 0.69743,-0.63119 1.0175,-0.35092 0.71126,0.62282 -0.30623,0.97374 5.31909,7.60641 12.50072,14.73926 7.18163,7.13285 12.73469,12.96882 12.34014,12.96882 -0.39456,0 -6.55052,-5.61226 -13.67992,-12.47168 z m 47.47641,3.02339 c -6.95276,-7.98073 -7.55332,-9.92101 -1.05278,-3.40132 5.16888,5.1841 7.33405,8.31458 5.75059,8.31441 -0.22968,-3e-5 -2.34369,-2.21091 -4.69781,-4.91309 z m -14.21439,-15.11714 c -2.52635,-2.7022 -5.41193,-4.68633 -6.4124,-4.40918 -1.00047,0.27715 -1.28405,0.0197 -0.63017,-0.57204 1.7147,-1.55183 -10.41171,-14.45163 -12.49161,-13.28828 -1.04947,0.58701 -1.23739,0.2361 -0.47299,-0.88325 1.46124,-2.13976 -5.44615,-9.54777 -7.7178,-8.27716 -0.80793,0.4519 -1.36132,0.26086 -1.22977,-0.42452 0.60282,-3.14057 -0.38562,-3.72126 -3.07958,-1.80919 -2.68679,1.90698 -2.72566,1.8476 -0.48065,-0.73435 2.14311,-2.46474 2.14311,-3.02068 0,-4.53515 -3.16182,-2.23438 -7.30566,-7.01708 -6.07975,-7.01708 0.52128,0 7.22641,6.63267 14.9003,14.73926 23.08104,24.38249 30.11247,32.12403 29.1774,32.12403 -0.48929,0 -2.95663,-2.21089 -5.48298,-4.91309 z M 264.14307,332.9784 c -2.12058,-2.4471 -2.04196,-2.47919 1.04825,-0.42777 1.83742,1.21976 3.65395,2.41024 4.03675,2.64551 0.38279,0.23527 -0.0889,0.42777 -1.04826,0.42777 -0.95933,0 -2.77587,-1.19048 -4.03674,-2.64551 z m 19.11363,-31.59263 c 0.59576,-0.53917 -0.23368,-2.06979 -1.8432,-3.40136 -1.60952,-1.33158 -5.06108,-4.80201 -7.67012,-7.71207 -2.60905,-2.91006 -8.35056,-9.03252 -12.75891,-13.60547 -4.40835,-4.57295 -11.61769,-12.05596 -16.02075,-16.62891 -4.40306,-4.57295 -8.66192,-8.12753 -9.46413,-7.89907 -0.80222,0.22847 -1.01461,-0.23473 -0.47198,-1.02933 0.54263,-0.79459 0.21735,-1.87497 -0.72283,-2.40085 -0.94018,-0.52587 -2.15871,0.10349 -2.70784,1.39858 -0.54914,1.29509 -1.79907,1.90689 -2.77763,1.35955 -1.15735,-0.64734 -1.35723,5e-5 -0.57188,1.85225 0.66404,1.56608 0.64956,2.34262 -0.0322,1.72565 -0.68173,-0.61697 -4.63603,1.78472 -8.78734,5.3371 l -7.54784,6.45886 7.28348,-7.5586 c 4.00591,-4.15722 8.77141,-8.64968 10.58998,-9.98323 1.81857,-1.33355 3.01934,-3.17294 2.66836,-4.08753 -0.60546,-1.57771 -20.09974,-23.09092 -78.0512,-86.1346 -34.89045,-37.95629 -37.00782,-40.58285 -37.00782,-45.90759 0,-5.54675 8.00034,-13.377911 13.65212,-13.363427 7.32533,0.01877 6.32253,-0.882395 90.91568,81.702277 34.46337,33.64511 61.03318,58.04154 63.30516,58.12687 0.91871,0.0345 1.46948,1.15925 1.22394,2.49942 -0.24554,1.34018 4.41293,7.10724 10.35216,12.81569 12.13847,11.66681 15.20443,16.79133 13.5707,22.68234 -1.32444,4.77579 -22.06148,24.73377 -25.69924,24.73377 -1.38045,0 -2.02247,-0.44114 -1.42671,-0.98032 z m -56.58915,-5.44448 -4.90605,-4.91309 5.42873,4.44006 c 2.9858,2.44203 5.42872,4.65292 5.42872,4.91308 0,1.1679 -1.37827,0.13963 -5.9514,-4.44005 z m -10.8788,-9.82618 -4.04952,-4.15722 4.46989,3.55974 c 2.63182,2.09595 5.31373,3.08776 6.522,2.41194 1.31556,-0.73584 1.62433,-0.52139 0.86026,0.59748 -1.79794,2.63282 -3.35846,2.15043 -7.80263,-2.41194 z m 4.49127,-3.67798 c 0.48242,-0.70643 1.57686,-0.89304 2.43209,-0.41469 2.18549,1.22242 1.9394,1.69912 -0.87713,1.69912 -1.33765,0 -2.03738,-0.57799 -1.55496,-1.28443 z m -10.00481,-3.56112 c -0.57285,-1.35103 -0.97375,-3.9314 -0.8909,-5.73415 0.10675,-2.32251 0.62129,-1.79761 1.7656,1.80114 1.66376,5.23232 0.97993,8.30704 -0.8747,3.93301 z m 78.68901,-39.39936 c -0.41573,-0.37624 1.78687,-3.19642 4.89466,-6.26707 3.34699,-3.30698 5.2587,-6.50708 4.68938,-7.84978 -0.52863,-1.24674 -0.41343,-1.7711 0.25601,-1.16526 0.66943,0.60585 3.12934,-0.4353 5.46646,-2.31365 4.864,-3.90922 3.71628,-2.30428 -6.93656,9.6999 -4.18775,4.71896 -7.95422,8.2721 -8.36995,7.89586 z m 29.20866,-33.04575 c 3.01491,-3.70908 6.09574,-6.77031 6.84628,-6.80273 0.75053,-0.0324 -1.40711,3.00227 -4.79476,6.74377 -7.91748,8.74448 -9.14009,8.77962 -2.05152,0.059 z m -45.46486,1.25566 c 0,-0.80128 3.1946,-4.14596 7.09911,-7.43262 l 7.0991,-5.97575 -6.68151,6.77953 c -3.67483,3.72873 -6.86943,7.07341 -7.09911,7.43261 -0.22967,0.3592 -0.41759,-0.002 -0.41759,-0.80377 z m 53.45413,-10.00265 c -0.001,-0.62118 2.69067,-3.82684 5.98177,-7.12368 3.53972,-3.5459 5.48111,-6.73039 4.75305,-7.79653 -0.74353,-1.08878 -0.52053,-1.40501 0.56329,-0.79879 2.26044,1.26433 12.2906,-9.54857 10.90406,-11.75499 -0.5637,-0.89702 -0.44788,-1.1611 0.25739,-0.58684 1.59993,1.30275 19.44056,-16.99688 18.25833,-18.72808 -0.47394,-0.69401 -1.74935,-0.80153 -2.83426,-0.23895 -1.13464,0.58838 -1.38126,0.43832 -0.58057,-0.35327 0.76559,-0.75688 2.08101,-1.46119 2.92316,-1.56512 0.84215,-0.10393 2.22774,-0.274 3.07908,-0.37793 0.85135,-0.10393 1.89166,-1.37944 2.3118,-2.83447 0.53752,-1.8615 0.80893,-1.9735 0.91584,-0.37793 0.16368,2.44289 -3.21645,6.58494 -24.20518,29.66132 -18.04022,19.83461 -22.32532,24.22478 -22.32776,22.87526 z m -38.42073,-4.80383 c 0,-0.69408 3.25855,-4.40496 7.24123,-8.24639 17.34906,-16.73375 24.64307,-23.31286 21.37327,-19.2784 -1.93232,2.3842 -3.03158,5.04033 -2.4428,5.90252 0.58879,0.86218 0.29157,1.13191 -0.66049,0.5994 -0.95205,-0.53251 -7.08155,4.26373 -13.62111,10.65833 -6.53955,6.39459 -11.8901,11.05863 -11.8901,10.36454 z M 327.7286,152.8319 c 2.61194,-2.97935 9.28511,-9.32857 14.82926,-14.10938 7.43539,-6.41165 11.31809,-8.68631 14.79783,-8.66923 3.4159,0.0168 4.06801,0.39528 2.36345,1.37185 -1.29475,0.74179 -3.40904,0.98234 -4.69843,0.53455 -2.59738,-0.90204 -29.51783,23.09597 -28.15206,25.09593 0.44818,0.6563 -0.2435,1.19327 -1.53708,1.19327 -1.57639,0 -0.78597,-1.78625 2.39703,-5.41699 z m 43.53171,-11.76163 c 0,-0.85664 -2.06709,-3.45147 -4.59354,-5.76629 -2.52645,-2.31482 -3.51177,-3.89531 -2.18961,-3.5122 3.23577,0.9376 9.35513,8.50833 7.92407,9.80346 -0.62751,0.56791 -1.14092,0.33167 -1.14092,-0.52497 z"
     id="path6" /></svg>
